<?xml version="1.0" encoding="utf-8"?>
<!-- Generator: Adobe Illustrator 15.0.2, SVG Export Plug-In . SVG Version: 6.00 Build 0)  -->
<!DOCTYPE svg PUBLIC "-//W3C//DTD SVG 1.1//EN" "http://www.w3.org/Graphics/SVG/1.1/DTD/svg11.dtd">
<svg version="1.1" id="Layer_1" xmlns="http://www.w3.org/2000/svg" xmlns:xlink="http://www.w3.org/1999/xlink" x="0px" y="0px"
	 width="891px" height="1259.631px" viewBox="0 0 891 1259.631" enable-background="new 0 0 891 1259.631" xml:space="preserve">
<g>
	<g>
		<path fill="#FFFFFF" d="M875.461,15.381C865.408,5.463,851.916,0,837.468,0H51.626C37.984,0,25.07,5.477,15.262,15.42
			C5.42,25.396,0,38.594,0,52.58v1154.473c0,28.992,25.419,52.578,56.663,52.578h777.746c15.114,0,29.231-5.438,39.749-15.312
			c10.861-10.195,16.842-24.276,16.842-39.647V52.58C891,38.479,885.481,25.268,875.461,15.381z M887,1204.672
			c0,30.004-24.015,50.959-52.591,50.959H56.663c-29.051,0-52.663-21.75-52.663-48.578V52.58C4,25.75,25.75,4,51.626,4h785.842
			C865.25,4,887,25.75,887,52.58V1204.672z"/>
		<path fill="#FFFFFF" d="M837.499,10H51.657c-10.944,0-21.33,4.42-29.245,12.442c-7.984,8.094-12.381,18.796-12.381,30.138
			v1154.473c0,23.477,20.933,42.578,46.663,42.578H834.44c12.563,0,24.248-4.475,32.905-12.602
			c8.825-8.285,13.686-19.777,13.686-32.357V52.58c0-11.406-4.462-22.088-12.562-30.08C860.3,14.439,849.301,10,837.499,10z
			 M877.031,1204.672c0,11.465-4.412,21.92-12.424,29.441c-7.912,7.427-18.625,11.518-30.167,11.518H56.694
			c-23.524,0-42.663-17.307-42.663-38.578V52.58c0-10.283,3.987-19.988,11.229-27.328C32.418,17.996,41.793,14,51.657,14h785.842
			c10.743,0,20.745,4.03,28.161,11.347c7.332,7.236,11.371,16.907,11.371,27.233V1204.672z"/>
		<path fill="#FFFFFF" d="M829.73,112.524h-768c-2.762,0-5,2.238-5,5v1023.999c0,2.762,2.238,5,5,5h768c2.762,0,5-2.238,5-5V117.524
			C834.73,114.763,832.492,112.524,829.73,112.524z M829.73,1141.523h-768V117.524h768V1141.523z"/>
		<path fill="#FFFFFF" d="M445.197,68.834c4.143,0,7.5-3.357,7.5-7.5s-3.357-7.5-7.5-7.5c-4.142,0-7.5,3.357-7.5,7.5
			S441.056,68.834,445.197,68.834z M445.197,56.834c2.481,0,4.5,2.019,4.5,4.5s-2.019,4.5-4.5,4.5s-4.5-2.019-4.5-4.5
			S442.716,56.834,445.197,56.834z"/>
		<ellipse fill="#FFFFFF" cx="423.697" cy="61.521" rx="4.018" ry="4.037"/>
		<path fill="#FFFFFF" d="M445.146,1171.709c-16.568,0-30,13.432-30,30c0,0.24,0.012,0.479,0.018,0.719
			c0.384,16.236,13.655,29.281,29.982,29.281c16.568,0,30-13.432,30-30S461.714,1171.709,445.146,1171.709z M445.146,1227.709
			c-6.835,0-13.288-2.632-18.173-7.411c-4.875-4.771-7.649-11.151-7.811-17.968l-0.008-0.273c-0.004-0.116-0.009-0.231-0.009-0.348
			c0-14.336,11.663-26,26-26s26,11.664,26,26S459.482,1227.709,445.146,1227.709z"/>
		<path fill="#FFFFFF" d="M450.923,1189.988h-11.847c-2.804,0-5.076,2.273-5.076,5.076v11.846c0,2.805,2.272,5.078,5.076,5.078
			h11.847c2.804,0,5.077-2.273,5.077-5.078v-11.846C456,1192.262,453.727,1189.988,450.923,1189.988z M452,1206.91
			c0,0.595-0.483,1.078-1.077,1.078h-11.847c-0.594,0-1.076-0.483-1.076-1.078v-11.846c0-0.594,0.482-1.076,1.076-1.076h11.847
			c0.594,0,1.077,0.482,1.077,1.076V1206.91z"/>
	</g>
</g>
</svg>