<?xml version="1.0" encoding="utf-8"?>
<!-- Generator: Adobe Illustrator 15.0.2, SVG Export Plug-In . SVG Version: 6.00 Build 0)  -->
<!DOCTYPE svg PUBLIC "-//W3C//DTD SVG 1.1//EN" "http://www.w3.org/Graphics/SVG/1.1/DTD/svg11.dtd">
<svg version="1.1" id="Layer_1" xmlns="http://www.w3.org/2000/svg" xmlns:xlink="http://www.w3.org/1999/xlink" x="0px" y="0px"
	 width="2100px" height="1684.803px" viewBox="0 0 2100 1684.803" enable-background="new 0 0 2100 1684.803" xml:space="preserve">
<g>
	<g>
		<path fill="#FFFFFF" d="M2038.679,0H61.321C27.455,0,0,27.455,0,61.322v1194.782v4v128.691c0,33.866,27.455,61.322,61.321,61.322
			h746.34c-1.628,25.973-4.681,61.584-8.579,95.358c-10.561,91.499-18.796,99.49-20.34,100.163
			c-7.52,3.277-30.451,6.797-50.682,9.902c-36.194,5.555-41.199,6.798-41.199,10.227v5.17c0,1.293,0.003,2.355,6.772,3.237
			c0,1.736,0,4.304,0,6.06c0,3.892,115.582,4.567,220.205,4.567c52.927,0,103.035-0.173,133.987-0.19
			c30.946,0.018,81.071,0.19,133.987,0.19c104.632,0,220.205-0.676,220.205-4.567c0-1.758,0-4.321,0-6.06
			c6.769-0.882,6.772-1.943,6.772-3.237v-5.17c0-3.429-5.006-4.671-41.198-10.227c-20.232-3.105-43.163-6.625-50.682-9.902
			c-1.545-0.673-9.779-8.664-20.342-100.163c-3.898-33.776-6.951-69.386-8.579-95.358h750.689c33.867,0,61.321-27.456,61.321-61.322
			v-128.691v-4V61.322C2100,27.455,2072.546,0,2038.679,0z M1399.018,1678.244c-4.531,0.834-20.531,2.056-72.859,2.809
			c-35.078,0.505-82.295,0.75-144.346,0.75c-32.081,0-62.594-0.063-89.516-0.117c-17.129-0.035-32.285-0.066-44.473-0.073
			c-12.187,0.007-27.343,0.038-44.471,0.073c-26.918,0.055-57.427,0.117-89.515,0.117c-62.045,0-109.26-0.245-144.343-0.75
			c-52.331-0.753-68.331-1.975-72.862-2.809v-3.734c9.427,0.91,27.948,1.613,64.361,2.172c36.164,0.555,85.804,0.825,151.758,0.825
			c32.604,0,63.481-0.063,90.724-0.118c17.13-0.035,32.247-0.065,44.349-0.072c12.102,0.007,27.219,0.037,44.352,0.072
			c27.246,0.056,58.127,0.118,90.724,0.118c65.96,0,115.601-0.271,151.761-0.825c36.41-0.559,54.931-1.262,64.357-2.172V1678.244z
			 M1292.596,1545.936c11.36,98.421,19.907,102.146,22.715,103.37c7.996,3.486,30.201,6.895,51.674,10.19
			c15.305,2.349,34.183,5.246,37.806,7.056v3.215c-9.62,2.482-84.212,3.74-221.891,3.74c-32.593,0-63.472-0.063-90.716-0.118
			c-17.134-0.035-32.254-0.065-44.359-0.072c-12.105,0.007-27.224,0.037-44.356,0.072c-27.241,0.056-58.117,0.118-90.716,0.118
			c-137.678,0-212.27-1.258-221.891-3.74v-3.215c3.623-1.81,22.502-4.707,37.806-7.056c21.473-3.296,43.677-6.704,51.674-10.19
			c2.809-1.224,11.355-4.949,22.715-103.37c3.916-33.931,6.98-69.727,8.609-95.817h472.32
			C1285.614,1476.209,1288.679,1512.005,1292.596,1545.936z M2096,1388.796c0,31.607-25.714,57.322-57.321,57.322H61.321
			c-31.607,0-57.321-25.715-57.321-57.322v-128.691h2092V1388.796z M4,1256.104V61.322C4,29.715,29.714,4,61.321,4h1977.357
			C2070.286,4,2096,29.715,2096,61.322v1194.782H4z"/>
		<path fill="#FFFFFF" d="M2010,84H90c-3.313,0-6,2.687-6,6v1080c0,3.313,2.687,6,6,6h1920c3.313,0,6-2.687,6-6V90
			C2016,86.687,2013.313,84,2010,84z M2010,1170H90V90h1920V1170z"/>
		<path fill="#FFFFFF" d="M1050,52.165c4.419,0,8-3.581,8-8s-3.581-8-8-8c-4.418,0-8,3.581-8,8S1045.582,52.165,1050,52.165z
			 M1050,40.165c2.205,0,4,1.794,4,4s-1.795,4-4,4s-4-1.794-4-4S1047.795,40.165,1050,40.165z"/>
	</g>
</g>
</svg>