<?xml version="1.0" encoding="utf-8"?>
<!-- Generator: Adobe Illustrator 15.0.2, SVG Export Plug-In . SVG Version: 6.00 Build 0)  -->
<!DOCTYPE svg PUBLIC "-//W3C//DTD SVG 1.1//EN" "http://www.w3.org/Graphics/SVG/1.1/DTD/svg11.dtd">
<svg version="1.1" id="Layer_1" xmlns="http://www.w3.org/2000/svg" xmlns:xlink="http://www.w3.org/1999/xlink" x="0px" y="0px"
	 width="386.5px" height="806.5px" viewBox="0 0 386.5 806.5" enable-background="new 0 0 386.5 806.5" xml:space="preserve">
<g>
	<g>
		<path fill="#FFFFFF" d="M369.489,23.487C358.521,12.533,343.941,6.5,328.434,6.5H323.5v-2V3.021l-1.174-0.9l-1.953-1.5L319.564,0
			h-1.019h-56.422h-0.797l-0.692,0.396l-2.623,1.5L256.5,2.76V4.5v2H63.566c-15.508,0-30.088,6.033-41.056,16.987
			C11.541,34.443,5.5,49.012,5.5,64.508V115h-1H3.258l-0.879,0.879l-1.5,1.5L0,118.258v1.242V153v1.242l0.879,0.879l1.5,1.5
			l0.879,0.879H4.5h1v33h-1H3.258l-0.879,0.879l-1.5,1.5L0,193.758V195v25v1.242l0.879,0.879l1.5,1.5l0.879,0.879H4.5h1V257h-1
			H3.258l-0.879,0.879l-1.5,1.5L0,260.258v1.242v25v1.242l0.879,0.879l1.5,1.5L3.258,291H4.5h1v457.493
			c0,15.495,6.041,30.063,17.011,41.021C33.478,800.468,48.059,806.5,63.566,806.5h264.867c15.508,0,30.089-6.032,41.056-16.986
			c10.97-10.957,17.011-25.525,17.011-41.021V64.508C386.5,49.012,380.459,34.443,369.489,23.487z M259.5,4.5l2.624-1.5h56.422
			l1.954,1.5v2h-61V4.5z M25.337,26.317C35.55,16.117,49.126,10.5,63.566,10.5h264.867c14.44,0,28.017,5.617,38.229,15.817
			S382.5,50.081,382.5,64.508V77h-4V64.473c0-27.619-22.416-50.008-50.066-50.008H63.566c-27.651,0-50.066,22.389-50.066,50.008V77
			h-4V64.508C9.5,50.081,15.124,36.518,25.337,26.317z M382.5,83v647.5h-4V83H382.5z M374.5,64.473v683.984
			c0,25.369-20.666,46.008-46.066,46.008H63.566c-25.4,0-46.066-20.639-46.066-46.008V64.473c0-25.369,20.666-46.008,46.066-46.008
			h264.867C353.834,18.465,374.5,39.104,374.5,64.473z M9.5,291v-3v-28v-3v-32.5v-3v-28v-3v-33v-3V118v-3V83h4v647.5h-4V291z
			 M4.5,154.5L3,153v-33.5c0.403-0.403,0.835-0.835,1.5-1.5h1v36.5H4.5z M4.5,221.5L3,220v-25c0.403-0.403,0.835-0.835,1.5-1.5h1v28
			H4.5z M4.5,288L3,286.5v-25c0.403-0.403,0.835-0.835,1.5-1.5h1v28H4.5z M366.663,786.684
			c-10.212,10.199-23.789,15.816-38.229,15.816H63.566c-14.44,0-28.018-5.617-38.229-15.816C15.124,776.482,9.5,762.919,9.5,748.493
			V736.5h4v11.957c0,27.619,22.415,50.008,50.066,50.008h264.867c27.65,0,50.066-22.389,50.066-50.008V736.5h4v11.993
			C382.5,762.919,376.876,776.482,366.663,786.684z"/>
		<path fill="#FFFFFF" d="M167.5,85h55c4.143,0,7.5-3.357,7.5-7.5c0-4.142-3.357-7.5-7.5-7.5h-55c-4.143,0-7.5,3.358-7.5,7.5
			C160,81.643,163.357,85,167.5,85z M167.5,74h55c1.93,0,3.5,1.57,3.5,3.5s-1.57,3.5-3.5,3.5h-55c-1.93,0-3.5-1.57-3.5-3.5
			S165.57,74,167.5,74z"/>
		<path fill="#FFFFFF" d="M355.5,118.5h-320c-2.209,0-4,1.791-4,4v568c0,2.209,1.791,4,4,4h320c2.209,0,4-1.791,4-4v-568
			C359.5,120.291,357.709,118.5,355.5,118.5z M355.5,690.5h-320v-568h320V690.5z"/>
		<path fill="#FFFFFF" d="M195.75,712.5c-18.64,0-33.75,15.111-33.75,33.75c0,18.641,15.11,33.75,33.75,33.75
			s33.75-15.109,33.75-33.75C229.5,727.611,214.39,712.5,195.75,712.5z M195.75,776c-16.404,0-29.75-13.346-29.75-29.75
			s13.346-29.75,29.75-29.75s29.75,13.346,29.75,29.75S212.154,776,195.75,776z"/>
		<path fill="#FFFFFF" d="M195.5,55.816c4.687,0,8.5-3.813,8.5-8.5s-3.813-8.5-8.5-8.5s-8.5,3.813-8.5,8.5
			S190.813,55.816,195.5,55.816z M195.5,41.816c3.032,0,5.5,2.468,5.5,5.5s-2.468,5.5-5.5,5.5s-5.5-2.468-5.5-5.5
			S192.468,41.816,195.5,41.816z"/>
		<circle fill="#FFFFFF" cx="195.5" cy="47.184" r="3"/>
	</g>
</g>
</svg>

